{
  "accessors": [
    {
      "bufferView": 2,
      "componentType": 5126,
      "count": 2210,
      "max": [
        0.029340999200940132,
        0.03023800067603588,
        0.05612799897789955
      ],
      "min": [
        -0.034772999584674835,
        -0.019990000873804092,
        -0.036538999527692795
      ],
      "type": "VEC3"
    },
    {
      "bufferView": 2,
      "byteOffset": 26520,
      "componentType": 5126,
      "count": 2210,
      "max": [
        0.9988682270050049,
        0.9998940229415894,
        1.0
      ],
      "min": [
        -0.9991175532341003,
        -0.9997393488883972,
        -1.0
      ],
      "type": "VEC3"
    },
    {
      "bufferView": 3,
      "componentType": 5126,
      "count": 2210,
      "max": [
        0.9997357130050659,
        0.999991238117218,
        0.9874371290206909,
        1.0
      ],
      "min": [
        -0.9988659620285034,
        -0.9999237656593323,
        -0.9874371290206909,
        -1.0
      ],
      "type": "VEC4"
    },
    {
      "bufferView": 1,
      "componentType": 5126,
      "count": 2210,
      "max": [
        0.9899569749832153,
        0.9571030139923096
      ],
      "min": [
        0.010042999871075153,
        0.0398700013756752
      ],
      "type": "VEC2"
    },
    {
      "bufferView": 0,
      "componentType": 5125,
      "count": 5712,
      "type": "SCALAR"
    }
  ],
  "asset": {
    "extras": {
      "author": "cassasin🎃 (https://sketchfab.com/partynoob)",
      "license": "CC-BY-SA-4.0 (http://creativecommons.org/licenses/by-sa/4.0/)",
      "source": "https://sketchfab.com/3d-models/backrooms-cca3efe8ec0e43d9b04dd5f0f0eb4ebd",
      "title": "Backrooms"
    },
    "generator": "Sketchfab-14.30.0",
    "version": "2.0"
  },
  "bufferViews": [
    {
      "buffer": 0,
      "byteLength": 22848,
      "name": "floatBufferViews",
      "target": 34963
    },
    {
      "buffer": 0,
      "byteLength": 17680,
      "byteOffset": 22848,
      "byteStride": 8,
      "name": "floatBufferViews",
      "target": 34962
    },
    {
      "buffer": 0,
      "byteLength": 53040,
      "byteOffset": 40528,
      "byteStride": 12,
      "name": "floatBufferViews",
      "target": 34962
    },
    {
      "buffer": 0,
      "byteLength": 35360,
      "byteOffset": 93568,
      "byteStride": 16,
      "name": "floatBufferViews",
      "target": 34962
    }
  ],
  "buffers": [
    {
      "byteLength": 128928,
      "uri": "scene.bin"
    }
  ],
  "images": [
    {
      "uri": "textures/PartygoerMaterial_baseColor.png"
    },
    {
      "uri": "textures/PartygoerMaterial_normal.png"
    }
  ],
  "materials": [
    {
      "doubleSided": true,
      "name": "PartygoerMaterial",
      "normalTexture": {
        "index": 1
      },
      "pbrMetallicRoughness": {
        "baseColorTexture": {
          "index": 0
        },
        "metallicFactor": 0.0,
        "roughnessFactor": 0.996882038499578
      }
    }
  ],
  "meshes": [
    {
      "name": "Object_0",
      "primitives": [
        {
          "attributes": {
            "NORMAL": 1,
            "POSITION": 0,
            "TANGENT": 2,
            "TEXCOORD_0": 3
          },
          "indices": 4,
          "material": 0,
          "mode": 4
        }
      ]
    }
  ],
  "nodes": [
    {
      "children": [
        1
      ],
      "matrix": [
        1.0,
        0.0,
        0.0,
        0.0,
        0.0,
        2.220446049250313e-16,
        -1.0,
        0.0,
        0.0,
        1.0,
        2.220446049250313e-16,
        0.0,
        0.0,
        0.0,
        0.0,
        1.0
      ],
      "name": "Sketchfab_model"
    },
    {
      "children": [
        2
      ],
      "name": "backrooms-main-menu.obj.cleaner.materialmerger.gles"
    },
    {
      "mesh": 0,
      "name": "Object_2"
    }
  ],
  "samplers": [
    {
      "magFilter": 9729,
      "minFilter": 9987,
      "wrapS": 10497,
      "wrapT": 10497
    }
  ],
  "scene": 0,
  "scenes": [
    {
      "name": "Sketchfab_Scene",
      "nodes": [
        0
      ]
    }
  ],
  "textures": [
    {
      "sampler": 0,
      "source": 0
    },
    {
      "sampler": 0,
      "source": 1
    }
  ]
}
